<svg data-v-fde0c5aa="" xmlns="http://www.w3.org/2000/svg" viewBox="0 0 300 300" class="iconLeft"><!----><defs data-v-fde0c5aa=""><!----></defs><rect data-v-fde0c5aa="" fill="#FBF3EF" x="0" y="0" width="300px" height="300px" class="logo-background-square"></rect><defs data-v-fde0c5aa=""><!----></defs><g data-v-fde0c5aa="" id="f905f76b-c566-4ec3-9ac5-3e0a7a364880" fill="#111111" transform="matrix(3.727967418230849,0,0,3.727967418230849,107.97349153403674,124.57526245653429)"><path d="M0.75 7.13L-0.02 1.93L1.83 1.93L2.38 6.86L2.89 6.86L2.89 6.86Q2.91 6.79 3.34 1.93L3.34 1.93L5.69 1.93L5.69 1.93Q6.14 6.95 6.16 7.05L6.16 7.05L6.93 7.05L6.93 7.05Q7.44 2.65 7.51 1.93L7.51 1.93L9.36 1.93L8.59 7.13L8.44 7.13L8.44 8.09L7.04 8.09L7.04 8.34L8.15 8.34L8.15 9.80L7.09 9.80L7.09 11.09L6.80 11.09L6.80 11.65L5.61 11.65L5.61 8.48L4.84 8.48L4.84 7.34L4.84 7.34Q4.84 7.19 4.53 4.57L4.53 4.57L4.50 4.57L4.50 4.59L4.25 6.86L4.37 6.86L4.37 10.36L3.23 10.36L3.23 11.73L1.76 11.73L1.76 10.36L1.20 10.36L1.20 7.13L0.75 7.13ZM0.81 7.27L0.81 7.27L0.91 7.27L0.98 7.49L0.99 7.49L0.99 7.49Q1.04 7.27 1.07 7.27L1.07 7.27L1.13 7.27L1.13 7.29L1.13 7.29Q1.04 7.63 1.01 7.63L1.01 7.63L0.93 7.63L0.93 7.63Q0.93 7.58 0.81 7.27ZM0.80 7.94L0.80 7.76L0.90 7.76L0.90 8.00L0.90 8.00Q0.90 8.01 0.96 8.05L0.96 8.05L0.96 8.05Q1.03 8.03 1.03 8.00L1.03 8.00L1.03 7.76L1.12 7.76L1.12 7.94L1.12 7.94Q1.12 8.07 1.03 8.11L1.03 8.11L0.93 8.11L0.93 8.11Q0.80 8.11 0.80 7.94L0.80 7.94ZM0.80 8.56L0.80 8.24L1.04 8.24L1.04 8.24Q1.07 8.24 1.11 8.31L1.11 8.31L1.11 8.37L1.07 8.42L1.07 8.42Q1.10 8.47 1.12 8.59L1.12 8.59L1.03 8.59L1.03 8.59Q1.03 8.55 1.01 8.46L1.01 8.46L0.90 8.46L0.90 8.59L0.83 8.59L0.83 8.59Q0.80 8.59 0.80 8.56L0.80 8.56ZM1.01 8.31L0.90 8.31L0.90 8.39L0.99 8.39L0.99 8.39Q1.03 8.39 1.03 8.35L1.03 8.35L1.03 8.35Q1.01 8.32 1.01 8.31L1.01 8.31ZM0.86 9.04L0.86 8.72L1.12 8.72L1.12 8.80L0.96 8.80L0.96 8.85L1.07 8.85L1.07 8.85Q1.11 8.86 1.11 8.89L1.11 8.89L1.11 8.93L0.96 8.93L0.96 9.08L0.90 9.08L0.90 9.08Q0.86 9.08 0.86 9.04L0.86 9.04ZM0.96 9.19L0.96 9.19L0.96 9.19Q1.11 9.22 1.11 9.32L1.11 9.32L1.07 9.33L1.04 9.33L0.98 9.27L0.93 9.27L0.93 9.27Q0.86 9.30 0.86 9.38L0.86 9.38L0.86 9.38Q0.86 9.50 0.96 9.50L0.96 9.50L0.96 9.50Q1.03 9.47 1.03 9.45L1.03 9.45L1.03 9.43L1.03 9.43Q0.94 9.43 0.94 9.40L0.94 9.40L0.94 9.38L0.94 9.38Q0.95 9.35 0.98 9.35L0.98 9.35L1.11 9.35L1.11 9.56L1.09 9.56L1.09 9.56Q1.07 9.56 1.04 9.54L1.04 9.54L0.94 9.56L0.93 9.56L0.93 9.56Q0.79 9.54 0.79 9.41L0.79 9.41L0.79 9.35L0.79 9.35Q0.79 9.21 0.96 9.19ZM0.80 10.01L0.80 9.69L0.90 9.69L0.90 9.82L1.03 9.82L1.03 9.69L1.12 9.69L1.12 10.01L1.12 10.01Q1.12 10.04 1.09 10.04L1.09 10.04L1.03 10.04L1.03 9.90L0.90 9.90L0.90 10.04L0.83 10.04L0.83 10.04Q0.80 10.04 0.80 10.01L0.80 10.01ZM7.14 9.88L7.14 9.88L7.23 9.88L7.23 9.88Q7.27 10.02 7.27 10.08L7.27 10.08L7.28 10.08L7.28 10.08Q7.33 9.92 7.33 9.88L7.33 9.88L7.40 9.88L7.40 9.88Q7.44 9.88 7.46 10.09L7.46 10.09L7.48 10.09L7.48 10.09Q7.51 9.88 7.54 9.88L7.54 9.88L7.60 9.88L7.60 9.88Q7.53 10.23 7.49 10.23L7.49 10.23L7.42 10.23L7.38 10.04L7.36 10.04L7.36 10.04Q7.33 10.22 7.33 10.23L7.33 10.23L7.23 10.23L7.23 10.23Q7.21 10.10 7.14 9.88ZM7.15 10.38L7.15 10.36L7.23 10.36L7.23 10.36Q7.27 10.36 7.30 10.46L7.30 10.46L7.30 10.46Q7.33 10.46 7.36 10.36L7.36 10.36L7.46 10.36L7.46 10.38L7.36 10.53L7.36 10.53Q7.36 10.53 7.48 10.70L7.48 10.70L7.48 10.72L7.40 10.72L7.40 10.72Q7.36 10.72 7.31 10.60L7.31 10.60L7.31 10.60Q7.23 10.72 7.22 10.72L7.22 10.72L7.14 10.72L7.14 10.72Q7.14 10.71 7.25 10.54L7.25 10.54L7.25 10.53L7.15 10.38ZM9.91 1.93L9.91 1.93L11.75 1.93L11.75 1.93Q11.78 1.94 11.78 1.97L11.78 1.97L11.78 6.73L11.78 6.73Q11.78 6.76 11.75 6.76L11.75 6.76L11.53 6.76L11.53 11.70L11.53 11.70Q11.53 11.73 11.50 11.73L11.50 11.73L9.91 11.73L9.91 11.73Q9.87 11.73 9.87 11.70L9.87 11.70L9.87 6.64L9.38 6.64L9.38 6.64Q9.34 6.64 9.34 6.61L9.34 6.61L9.34 6.40L9.34 6.40Q9.35 6.36 9.38 6.36L9.38 6.36L9.87 6.36L9.87 1.97L9.87 1.97Q9.88 1.93 9.91 1.93ZM10.83 6.36L9.88 6.36L9.88 6.64L10.83 6.64L10.83 6.36ZM12.08 8.85L12.08 1.91L14.03 1.91L14.03 5.94L13.64 5.94L13.64 10.10L16.55 10.10L16.55 10.97L15.98 10.97L15.98 11.17L16.55 11.17L16.55 11.73L14.67 11.73L14.67 11.58L12.09 11.58L12.09 11.58Q12.08 11.42 12.08 11.33L12.08 11.33L12.08 9.14L12.57 9.14L12.57 8.85L12.08 8.85ZM16.55 11.17L16.55 10.97L17.26 10.97L17.26 11.17L16.55 11.17ZM17.29 8.85L17.29 1.91L19.24 1.91L19.24 5.94L18.85 5.94L18.85 10.10L21.76 10.10L21.76 10.97L21.18 10.97L21.18 11.17L21.76 11.17L21.76 11.73L19.88 11.73L19.88 11.58L17.30 11.58L17.30 11.58Q17.29 11.42 17.29 11.33L17.29 11.33L17.29 9.14L17.78 9.14L17.78 8.85L17.29 8.85ZM21.76 11.17L21.76 10.97L22.47 10.97L22.47 11.17L21.76 11.17ZM23.06 1.93L23.06 1.93L24.90 1.93L24.90 1.93Q24.93 1.94 24.93 1.97L24.93 1.97L24.93 6.73L24.93 6.73Q24.93 6.76 24.90 6.76L24.90 6.76L24.68 6.76L24.68 11.70L24.68 11.70Q24.68 11.73 24.65 11.73L24.65 11.73L23.06 11.73L23.06 11.73Q23.02 11.73 23.02 11.70L23.02 11.70L23.02 6.64L22.53 6.64L22.53 6.64Q22.50 6.64 22.50 6.61L22.50 6.61L22.50 6.40L22.50 6.40Q22.50 6.36 22.53 6.36L22.53 6.36L23.02 6.36L23.02 1.97L23.02 1.97Q23.03 1.93 23.06 1.93ZM23.98 6.36L23.04 6.36L23.04 6.64L23.98 6.64L23.98 6.36ZM25.38 9.38L25.38 1.98L27.56 1.98L27.56 1.98Q27.92 3.29 29.03 7.23L29.03 7.23L29.89 7.23L29.89 7.23Q29.93 7.23 30.17 6.30L30.17 6.30L30.17 6.30Q30.71 4.44 31.39 1.98L31.39 1.98L33.40 1.98L33.40 8.31L33.51 8.31L33.51 9.46L32.90 9.46L32.90 9.67L33.51 9.67L33.51 11.73L31.80 11.73L31.80 10.97L32.01 10.97L32.01 8.63L31.65 8.63L31.65 7.46L31.44 7.46L31.42 7.53L31.24 7.53L31.24 9.19L30.65 9.19L30.65 9.97L30.14 9.97L30.14 11.29L28.94 11.29L28.94 10.45L28.20 10.45L28.20 9.30L27.75 9.30L27.75 8.09L27.50 8.09L27.50 8.09Q27.49 8.00 27.34 7.46L27.34 7.46L29.07 7.46L29.02 7.23L27.29 7.23L27.34 7.46L27.11 7.46L27.11 8.98L27.22 8.98L27.22 10.64L26.80 10.64L26.80 10.94L27.22 10.94L27.22 11.38L25.68 11.38L25.68 9.38L25.38 9.38ZM27.11 6.54L27.09 6.54L27.09 6.66L27.09 6.66Q27.09 6.81 27.11 7.23L27.11 7.23L27.28 7.23L27.28 7.23Q27.11 6.58 27.11 6.54L27.11 6.54ZM31.67 6.56L31.65 6.56L31.51 7.23L31.65 7.23L31.65 7.23Q31.67 6.82 31.67 6.62L31.67 6.62L31.67 6.56ZM27.09 7.23L26.55 7.23L26.55 7.46L27.09 7.46L27.09 7.23ZM31.49 7.23L29.92 7.23L29.87 7.46L31.42 7.46L31.42 7.46Q31.49 7.29 31.49 7.23L31.49 7.23ZM32.85 7.23L31.67 7.23L31.67 7.46L32.85 7.46L32.85 7.23ZM29.84 7.46L29.10 7.46L29.10 7.46Q29.21 7.99 29.25 7.99L29.25 7.99L29.45 7.99L29.45 8.87L29.76 8.87L29.76 7.51L29.84 7.51L29.84 7.46ZM33.51 9.67L33.51 9.46L34.50 9.46L34.50 9.67L33.51 9.67ZM25.23 11.61L25.23 11.46L26.97 11.46L26.97 11.61L25.23 11.61ZM37.63 1.96L37.63 1.96L37.63 1.96Q39.25 1.96 39.81 3.01L39.81 3.01L39.81 3.01Q40.19 3.80 40.19 4.56L40.19 4.56L40.17 4.56L40.17 4.56Q39.06 4.66 38.65 4.66L38.65 4.66L38.65 4.66Q38.65 4.12 38.32 3.75L38.32 3.75L38.32 3.75Q38.00 3.57 37.73 3.57L37.73 3.57L37.46 3.57L37.46 3.57Q36.76 3.57 36.61 4.11L36.61 4.11L36.61 4.11Q36.58 4.27 36.58 4.35L36.58 4.35L36.58 4.50L36.58 4.50Q36.58 5.26 37.39 5.61L37.39 5.61L37.39 5.61Q37.45 5.67 38.51 6.12L38.51 6.12L38.51 6.12Q39.07 6.38 39.55 6.76L39.55 6.76L39.55 6.77L37.83 6.77L37.83 6.97L40.09 6.97L40.09 7.24L40.38 7.24L40.38 10.21L39.82 10.21L39.82 11.73L35.47 11.73L35.47 10.21L34.45 10.21L34.45 9.18L35.03 9.18L35.03 8.83L34.45 8.83L34.45 8.59L36.44 8.59L36.44 10.21L38.47 10.21L38.47 7.77L36.95 7.77L36.95 6.97L35.05 6.97L35.05 6.77L35.97 6.77L35.97 6.76L35.97 6.76Q34.77 5.96 34.77 4.50L34.77 4.50L34.77 4.37L34.77 4.37Q34.77 3.14 35.52 2.51L35.52 2.51L35.52 2.51Q36.20 1.96 37.63 1.96ZM40.09 6.97L40.09 6.77L40.78 6.77L40.78 6.97L40.09 6.97ZM33.79 9.18L33.79 8.83L34.45 8.83L34.45 9.18L33.79 9.18Z"></path></g><defs data-v-fde0c5aa=""><!----></defs><g data-v-fde0c5aa="" id="d314f7e6-eb7b-4a76-9fea-44733ce1e38b" stroke="none" fill="#d84450" transform="matrix(1.1440198749983932,0,0,1.1440198749983932,39.971399394022804,122.54352081799382)"><path d="M46.5 39.1L31.6 24.2c3.1-6.2 2.1-14.1-3.1-19.3C25.3 1.8 21.1 0 16.7 0 12.2 0 8 1.8 4.9 4.9c-6.5 6.5-6.5 17.1 0 23.6 3.1 3.1 7.3 4.9 11.8 4.9 2.7 0 5.3-.6 7.6-1.8l4.4 4.4 10.5 10.5c1 1 2.3 1.5 3.7 1.5 1.3 0 2.7-.5 3.7-1.5 1.9-2.1 1.9-5.4-.1-7.4zm-40.2-12c-5.7-5.7-5.7-15 0-20.7C9.1 3.6 12.7 2 16.7 2c3.9 0 7.6 1.5 10.4 4.3 5.7 5.7 5.7 15 0 20.7a14.6 14.6 0 0 1-10.4 4.3c-4 .1-7.6-1.4-10.4-4.2zm22.2 1.4c.8-.8 1.5-1.6 2.1-2.5l3.4 3.4-4.5 4.5-3.5-3.4c.9-.6 1.7-1.3 2.5-2zM45.1 45c-1.2 1.2-3.3 1.2-4.5 0l-9.8-9.8 4.5-4.5 9.8 9.8c1.2 1.3 1.2 3.3 0 4.5z"></path><path d="M25.6 7.8c-2.4-2.4-5.6-3.7-9-3.7-3.4 0-6.6 1.3-9 3.7-2.4 2.4-3.7 5.6-3.7 9 0 3.4 1.3 6.6 3.7 9 2.4 2.4 5.6 3.7 9 3.7 3.4 0 6.6-1.3 9-3.7 5-5.1 5-13.1 0-18zm-1.4 16.5c-2 2-4.7 3.1-7.5 3.1s-5.5-1.1-7.5-3.1-3.1-4.7-3.1-7.5c0-2.9 1.1-5.5 3.1-7.5s4.7-3.1 7.5-3.1c2.9 0 5.5 1.1 7.5 3.1 4.2 4 4.2 10.8 0 15z"></path><path d="M12.1 12.9l-3.3 7.5h1.4l.8-1.7h3.8l.8 1.7H17l-3.3-7.5h-1.6zm-.7 4.7l1.4-3.1 1.4 3.1h-2.8zM23.5 13.9c-.7-.7-1.8-1-3.1-1h-2.6v7.5h2.5c1.5 0 2.5-.3 3.2-1 .7-.7 1.1-1.6 1.1-2.8 0-1.1-.4-2-1.1-2.7zm-.9 4.7c-.5.4-1.2.7-2.1.7h-1.4v-5.2h1.3c2 0 3 .9 3 2.6-.1.9-.3 1.5-.8 1.9z"></path></g><!----></svg>