<svg data-v-fde0c5aa="" xmlns="http://www.w3.org/2000/svg" viewBox="0 0 300 300" class="icon"><!----><defs data-v-fde0c5aa=""><!----></defs><rect data-v-fde0c5aa="" fill="#FBF3EF" x="0" y="0" width="300px" height="300px" class="logo-background-square"></rect><!----><defs data-v-fde0c5aa=""><!----></defs><g data-v-fde0c5aa="" id="af76eb85-fb44-4045-bbd4-fd77cf726ef9" fill="#d84450" stroke="none" transform="matrix(4.583332969082755,0,0,4.583332969082755,39.91351307125784,40.000000000000014)"><path d="M46.5 39.1L31.6 24.2c3.1-6.2 2.1-14.1-3.1-19.3C25.3 1.8 21.1 0 16.7 0 12.2 0 8 1.8 4.9 4.9c-6.5 6.5-6.5 17.1 0 23.6 3.1 3.1 7.3 4.9 11.8 4.9 2.7 0 5.3-.6 7.6-1.8l4.4 4.4 10.5 10.5c1 1 2.3 1.5 3.7 1.5 1.3 0 2.7-.5 3.7-1.5 1.9-2.1 1.9-5.4-.1-7.4zm-40.2-12c-5.7-5.7-5.7-15 0-20.7C9.1 3.6 12.7 2 16.7 2c3.9 0 7.6 1.5 10.4 4.3 5.7 5.7 5.7 15 0 20.7a14.6 14.6 0 0 1-10.4 4.3c-4 .1-7.6-1.4-10.4-4.2zm22.2 1.4c.8-.8 1.5-1.6 2.1-2.5l3.4 3.4-4.5 4.5-3.5-3.4c.9-.6 1.7-1.3 2.5-2zM45.1 45c-1.2 1.2-3.3 1.2-4.5 0l-9.8-9.8 4.5-4.5 9.8 9.8c1.2 1.3 1.2 3.3 0 4.5z"></path><path d="M25.6 7.8c-2.4-2.4-5.6-3.7-9-3.7-3.4 0-6.6 1.3-9 3.7-2.4 2.4-3.7 5.6-3.7 9 0 3.4 1.3 6.6 3.7 9 2.4 2.4 5.6 3.7 9 3.7 3.4 0 6.6-1.3 9-3.7 5-5.1 5-13.1 0-18zm-1.4 16.5c-2 2-4.7 3.1-7.5 3.1s-5.5-1.1-7.5-3.1-3.1-4.7-3.1-7.5c0-2.9 1.1-5.5 3.1-7.5s4.7-3.1 7.5-3.1c2.9 0 5.5 1.1 7.5 3.1 4.2 4 4.2 10.8 0 15z"></path><path d="M12.1 12.9l-3.3 7.5h1.4l.8-1.7h3.8l.8 1.7H17l-3.3-7.5h-1.6zm-.7 4.7l1.4-3.1 1.4 3.1h-2.8zM23.5 13.9c-.7-.7-1.8-1-3.1-1h-2.6v7.5h2.5c1.5 0 2.5-.3 3.2-1 .7-.7 1.1-1.6 1.1-2.8 0-1.1-.4-2-1.1-2.7zm-.9 4.7c-.5.4-1.2.7-2.1.7h-1.4v-5.2h1.3c2 0 3 .9 3 2.6-.1.9-.3 1.5-.8 1.9z"></path></g><!----></svg>